# Alias OBJ Model File
# Exported from SketchUp, (c) 2000-2012 Trimble Navigation Limited
# File units = meters

mtllib block.mtl

g Mesh1 Group1 Model

usemtl FrontColor
v 1.93129 1.36628 1.93129
vt 104.617 3.2375
vn 0 1 -0
v 1.93129 1.36628 -1.93129
vt 104.617 104.617
v -1.93129 1.36628 1.93129
vt 3.23749 3.2375
f 1/1/1 2/2/1 3/3/1

v 2.05464 1.36628 2.05464
vt 107.855 0
f 1/1/1 4/4/1 2/2/1

v -2.05464 1.36628 2.05464
vt 0 0
f 5/5/1 4/4/1 1/1/1

vt 107.855 36.0253
vn 0 0 1
vt 0 36.0253
v -2.05464 1.18048 2.05464
vt 0 31.1485
f 4/6/2 5/7/2 6/8/2

vn -1 0 -0
v -2.05464 1.18048 -2.05464
vt -107.855 31.1485
f 6/8/3 5/7/3 7/9/3

v -2.05464 1.36628 -2.05464
vt -107.855 36.0253
f 5/7/3 8/10/3 7/9/3

vt 0 107.855
f 8/11/1 5/5/1 3/3/1

f 3/3/1 5/5/1 1/1/1

v -1.93129 1.36628 -1.93129
vt 3.23749 104.617
f 9/12/1 8/11/1 3/3/1

v 2.05464 1.36628 -2.05464
vt 107.855 107.855
f 10/13/1 8/11/1 9/12/1

vn 0 0 -1
v 2.05464 1.18048 -2.05464
f 8/7/4 10/10/4 11/9/4

vt 107.855 31.1485
vn 1 0 -0
v 2.05464 1.18048 2.05464
f 11/14/5 10/6/5 12/8/5

f 10/6/5 4/7/5 12/8/5

f 4/4/1 10/13/1 2/2/1

f 2/2/1 10/13/1 9/12/1

f 2/2/1 9/12/1 3/3/1

f 12/14/2 4/6/2 6/8/2

vt -107.855 0
vn 0 -1 -0
v -1.93129 1.18048 1.93129
vt -3.23749 3.2375
f 12/15/6 6/5/6 13/16/6

v -1.93129 1.18048 -1.93129
vt -3.23749 104.617
f 13/16/6 6/5/6 14/17/6

f 6/5/6 7/11/6 14/17/6

v 1.93129 1.18048 -1.93129
vt -104.617 104.617
f 14/17/6 7/11/6 15/18/6

vt -107.855 107.855
f 7/11/6 11/19/6 15/18/6

f 7/8/4 8/7/4 11/9/4

v 1.93129 1.18048 1.93129
vt -104.617 3.2375
f 15/18/6 11/19/6 16/20/6

f 11/19/6 12/15/6 16/20/6

f 16/20/6 12/15/6 13/16/6

vt 104.617 31.1485
vt 3.23749 31.1485
v -1.93129 -0.00628242 1.93129
vt 3.23749 0
f 16/21/2 13/22/2 17/23/2

vt -3.2375 0
vt -3.2375 31.1485
v -1.93129 -0.00628242 -1.93129
vt -104.617 0
f 17/24/3 13/25/3 18/26/3

vt -104.617 31.1485
f 13/25/3 14/27/3 18/26/3

vt -3.23749 0
vt -3.23749 31.1485
v 1.93129 -0.00628242 -1.93129
f 18/28/4 14/29/4 19/26/4

f 14/29/4 15/27/4 19/26/4

vt 104.617 0
v 1.93129 -0.00628242 1.93129
vt 3.2375 0
f 19/30/5 15/21/5 20/31/5

vt 3.2375 31.1485
f 15/21/5 16/32/5 20/31/5

f 20/30/2 16/21/2 17/23/2

